<svg width="30" height="30" viewBox="0 0 30 30" fill="none" xmlns="http://www.w3.org/2000/svg">
<rect width="30" height="30" rx="2" fill="white"/>
<g clip-path="url(#clip0)">
<path d="M14.9993 28.25C23.3112 28.25 30.0493 21.5119 30.0493 13.1999C30.0493 4.88804 23.3112 -1.8501 14.9993 -1.8501C6.68735 -1.8501 -0.0507812 4.88804 -0.0507812 13.1999C-0.0507812 21.5119 6.68735 28.25 14.9993 28.25Z" fill="white"/>
<path d="M14.9993 28.25C23.3112 28.25 30.0493 21.5119 30.0493 13.1999C30.0493 4.88804 23.3112 -1.8501 14.9993 -1.8501C6.68735 -1.8501 -0.0507812 4.88804 -0.0507812 13.1999C-0.0507812 21.5119 6.68735 28.25 14.9993 28.25Z" stroke="white" stroke-width="2"/>
<path d="M15.0001 26.9963C23.312 26.9963 27.5418 21.5124 27.5418 13.2005C27.5418 4.88855 23.312 1.01709 15.0001 1.01709C6.68819 1.01709 1.9209 4.88855 1.9209 13.2005C1.9209 21.5124 6.68819 26.9963 15.0001 26.9963Z" fill="#1A1A1A"/>
<path d="M1.02539 13.2093C1.02539 19.3973 5.02575 24.6237 10.5808 26.4767C11.2796 26.5992 11.5416 26.1797 11.5416 25.8129C11.5416 25.4804 11.5241 24.3794 11.5241 23.2081C8.01291 23.8545 7.10453 22.3511 6.82503 21.5647C6.66781 21.1627 5.98653 19.9216 5.39259 19.5894C4.90346 19.3271 4.20471 18.6805 5.37512 18.663C6.47566 18.6456 7.26175 19.6768 7.52378 20.0963C8.78154 22.2113 10.7905 21.6174 11.594 21.25C11.7163 20.3411 12.0831 19.7289 12.4849 19.3795C9.37548 19.0301 6.12628 17.824 6.12628 12.4753C6.12628 10.9542 6.66781 9.69563 7.55872 8.71684C7.41897 8.36746 6.92984 6.93394 7.69847 5.01076C7.69847 5.01076 8.86888 4.64392 11.5416 6.44428C12.6596 6.12984 13.8475 5.97235 15.0354 5.97235C16.2232 5.97235 17.4111 6.12984 18.5291 6.44428C21.2019 4.62645 22.3723 5.01103 22.3723 5.01103C23.1409 6.93367 22.6518 8.36692 22.512 8.71657C23.4029 9.69536 23.9445 10.9364 23.9445 12.4748C23.9445 17.8412 20.6778 19.0296 17.5683 19.3795C18.0749 19.8165 18.5117 20.6556 18.5117 21.9665C18.5117 23.837 18.4942 25.3401 18.4942 25.8123C18.4942 26.1792 18.7562 26.6159 19.455 26.4762C24.9751 24.6239 28.9755 19.3801 28.9755 13.2095C28.9755 5.48269 22.7216 -0.774902 15.0004 -0.774902C7.27922 -0.774902 1.02539 5.48296 1.02539 13.2093Z" fill="white"/>
</g>
<defs>
<clipPath id="clip0">
<rect x="0.599609" y="0.600098" width="28.8" height="28.8" rx="2" fill="white"/>
</clipPath>
</defs>
</svg>
