<svg width="32" height="32" viewBox="0 0 32 32" fill="none" xmlns="http://www.w3.org/2000/svg">
<path fill-rule="evenodd" clip-rule="evenodd" d="M1.33203 3.78417C1.33203 3.13421 1.59023 2.51087 2.04982 2.05128C2.5094 1.59169 3.13274 1.3335 3.7827 1.3335H28.212C28.5341 1.33297 28.8532 1.39598 29.1509 1.51892C29.4486 1.64186 29.7191 1.82231 29.947 2.04995C30.1749 2.27758 30.3557 2.54793 30.4789 2.84551C30.6022 3.14309 30.6655 3.46207 30.6654 3.78417V28.2135C30.6657 28.5357 30.6025 28.8547 30.4795 29.1525C30.3564 29.4502 30.1758 29.7207 29.9481 29.9486C29.7203 30.1764 29.4499 30.3572 29.1522 30.4804C28.8546 30.6037 28.5355 30.667 28.2134 30.6668H3.7827C3.46076 30.6668 3.14198 30.6034 2.84456 30.4802C2.54715 30.3569 2.27693 30.1763 2.04934 29.9486C1.82176 29.7209 1.64127 29.4506 1.51819 29.1531C1.39512 28.8556 1.33186 28.5368 1.33203 28.2148V3.78417ZM12.9427 12.5175H16.9147V14.5122C17.488 13.3655 18.9547 12.3335 21.1587 12.3335C25.384 12.3335 26.3854 14.6175 26.3854 18.8082V26.5708H22.1094V19.7628C22.1094 17.3762 21.536 16.0295 20.08 16.0295C18.06 16.0295 17.22 17.4815 17.22 19.7628V26.5708H12.9427V12.5175ZM5.60937 26.3882H9.8867V12.3335H5.60937V26.3868V26.3882ZM10.4987 7.7495C10.5068 8.11573 10.4416 8.47988 10.307 8.82059C10.1724 9.16129 9.97117 9.47168 9.71501 9.73354C9.45885 9.99541 9.15296 10.2035 8.81531 10.3455C8.47765 10.4876 8.11502 10.5607 7.7487 10.5607C7.38238 10.5607 7.01975 10.4876 6.68209 10.3455C6.34443 10.2035 6.03855 9.99541 5.78239 9.73354C5.52623 9.47168 5.32496 9.16129 5.19038 8.82059C5.0558 8.47988 4.99063 8.11573 4.9987 7.7495C5.01453 7.03064 5.31121 6.34655 5.82521 5.84375C6.33921 5.34094 7.02966 5.05939 7.7487 5.05939C8.46773 5.05939 9.15818 5.34094 9.67218 5.84375C10.1862 6.34655 10.4829 7.03064 10.4987 7.7495Z" fill="white"/>
</svg>
