<svg width="36" height="36" viewBox="0 0 36 36" fill="none" xmlns="http://www.w3.org/2000/svg">
<path d="M18 36C27.9411 36 36 27.9411 36 18C36 8.05887 27.9411 0 18 0C8.05887 0 0 8.05887 0 18C0 27.9411 8.05887 36 18 36Z" fill="url(#paint0_linear)"/>
<path d="M7.4917 17.8438L19.6131 12.8496C20.8096 12.3294 24.8674 10.6647 24.8674 10.6647C24.8674 10.6647 26.7403 9.93633 26.5842 11.7051C26.5322 12.4334 26.116 14.9826 25.6998 17.7398L24.3992 25.9074C24.3992 25.9074 24.2952 27.104 23.4108 27.3121C22.5264 27.5201 21.0697 26.5837 20.8096 26.3756C20.6015 26.2196 16.9079 23.8785 15.5553 22.734C15.1911 22.4219 14.7749 21.7976 15.6073 21.0693C17.4801 19.3525 19.7171 17.2196 21.0697 15.867C21.694 15.2427 22.3183 13.786 19.7171 15.5548L12.3819 20.497C12.3819 20.497 11.5495 21.0173 9.98881 20.5491C8.42812 20.0808 6.60731 19.4566 6.60731 19.4566C6.60731 19.4566 5.35876 18.6762 7.4917 17.8438Z" fill="white"/>
<defs>
<linearGradient id="paint0_linear" x1="24.0014" y1="6.00139" x2="15.0014" y2="27" gradientUnits="userSpaceOnUse">
<stop stop-color="#37AEE2"/>
<stop offset="1" stop-color="#1E96C8"/>
</linearGradient>
</defs>
</svg>
