<svg width="30" height="30" viewBox="0 0 30 30" fill="none" xmlns="http://www.w3.org/2000/svg">
<path d="M23.2639 11.0418C24.2824 10.2085 24.9306 9.51405 25.2083 8.9585C24.6065 9.23628 23.8889 9.44461 23.0556 9.5835C23.8889 8.98165 24.4444 8.2409 24.7222 7.36128C23.7963 7.87053 22.9398 8.19461 22.1528 8.3335C21.5972 7.68535 20.8796 7.3034 20 7.18766C19.1204 7.07192 18.2986 7.18766 17.5347 7.53489C16.7708 7.88211 16.1574 8.46081 15.6944 9.271C15.2315 10.0812 15.1157 10.9724 15.3472 11.9446C12.2454 11.7594 9.51389 10.3937 7.15278 7.84739C6.64352 8.77331 6.53935 9.78026 6.84028 10.8682C7.1412 11.9562 7.63889 12.7085 8.33333 13.1252C7.82407 13.0789 7.26852 12.9168 6.66667 12.6391C6.71296 14.6298 7.73148 15.9492 9.72222 16.5974C9.16667 16.7363 8.61111 16.7594 8.05556 16.6668C8.61111 18.3335 9.83796 19.2594 11.7361 19.4446C11.0417 20.0465 10.1389 20.4979 9.02778 20.7988C7.91667 21.0997 6.875 21.1807 5.90278 21.0418C7.98611 22.3381 10.1157 22.94 12.2917 22.8474C15.5324 22.7085 18.1597 21.5627 20.1736 19.4099C22.1875 17.2571 23.2176 14.4678 23.2639 11.0418ZM26.6667 0.208496C27.5 0.208496 28.206 0.497848 28.7847 1.07655C29.3634 1.65526 29.6528 2.33813 29.6528 3.12516V26.8752C29.6528 27.6622 29.3634 28.3451 28.7847 28.9238C28.206 29.5025 27.5 29.7918 26.6667 29.7918H2.98611C2.15278 29.7918 1.44676 29.5025 0.868056 28.9238C0.289352 28.3451 0 27.6622 0 26.8752V3.12516C0 2.33813 0.289352 1.65526 0.868056 1.07655C1.44676 0.497848 2.15278 0.208496 2.98611 0.208496H26.6667Z" fill="white"/>
</svg>
