<svg width="30" height="30" viewBox="0 0 30 30" fill="none" xmlns="http://www.w3.org/2000/svg">
<path d="M15 30C6.71573 30 0 23.2843 0 15C0 6.71573 6.71573 0 15 0C23.2843 0 30 6.71573 30 15C29.9909 23.2805 23.2805 29.9909 15 30ZM15 3C8.4081 3.00167 3.05169 8.3203 3.00336 14.912C2.95503 21.5037 8.23288 26.9003 14.824 26.9987C21.4152 27.097 26.8517 21.8602 27 15.27V17.9445V15C26.9926 8.37567 21.6243 3.00744 15 3ZM17.175 22.35L9.75 14.925L17.175 7.5L19.296 9.621L13.992 14.925L19.2945 20.229L17.1765 22.35H17.175Z" fill="white"/>
</svg>
