<svg width="30" height="30" viewBox="0 0 30 30" fill="none" xmlns="http://www.w3.org/2000/svg">
<path d="M15 30C6.7195 29.9909 0.00909356 23.2805 0 15V14.7C0.164897 6.45682 6.95188 -0.108039 15.196 0.00134733C23.4401 0.110733 30.0505 6.85336 29.9967 15.098C29.9428 23.3427 23.2449 29.9984 15 30ZM15 3.00003C8.37258 3.00003 3 8.37261 3 15C3 21.6274 8.37258 27 15 27C21.6274 27 27 21.6274 27 15C26.9926 8.37569 21.6243 3.00747 15 3.00003ZM12.825 22.5L10.704 20.3775L16.0065 15.075L10.704 9.77253L12.825 7.65003L20.25 15.075L12.8265 22.5H12.825Z" fill="white"/>
</svg>
